<svg width="60" height="60" viewBox="0 0 60 60" fill="none" xmlns="http://www.w3.org/2000/svg">
<path d="M14 0C12.1615 -2.73959e-08 10.341 0.36212 8.64243 1.06569C6.94387 1.76925 5.40053 2.80048 4.1005 4.1005C2.80048 5.40053 1.76925 6.94387 1.06569 8.64243C0.36212 10.341 0 12.1615 0 14C0 15.8385 0.36212 17.659 1.06569 19.3576C1.76925 21.0561 2.80048 22.5995 4.1005 23.8995C5.40053 25.1995 6.94387 26.2307 8.64243 26.9343C10.341 27.6379 12.1615 28 14 28H26C26.5304 28 27.0391 27.7893 27.4142 27.4142C27.7893 27.0391 28 26.5304 28 26V14C28 10.287 26.525 6.72601 23.8995 4.1005C21.274 1.475 17.713 0 14 0ZM14 60C10.287 60 6.72601 58.525 4.1005 55.8995C1.475 53.274 0 49.713 0 46C0 42.287 1.475 38.726 4.1005 36.1005C6.72601 33.475 10.287 32 14 32H26C26.5304 32 27.0391 32.2107 27.4142 32.5858C27.7893 32.9609 28 33.4696 28 34V46C28 49.713 26.525 53.274 23.8995 55.8995C21.274 58.525 17.713 60 14 60ZM46 0C47.8385 -2.73959e-08 49.659 0.36212 51.3576 1.06569C53.0561 1.76925 54.5995 2.80048 55.8995 4.1005C57.1995 5.40053 58.2307 6.94387 58.9343 8.64243C59.6379 10.341 60 12.1615 60 14C60 15.8385 59.6379 17.659 58.9343 19.3576C58.2307 21.0561 57.1995 22.5995 55.8995 23.8995C54.5995 25.1995 53.0561 26.2307 51.3576 26.9343C49.659 27.6379 47.8385 28 46 28H34C33.4696 28 32.9609 27.7893 32.5858 27.4142C32.2107 27.0391 32 26.5304 32 26V14C32 10.287 33.475 6.72601 36.1005 4.1005C38.726 1.475 42.287 0 46 0ZM46 60C49.713 60 53.274 58.525 55.8995 55.8995C58.525 53.274 60 49.713 60 46C60 42.287 58.525 38.726 55.8995 36.1005C53.274 33.475 49.713 32 46 32H34C33.4696 32 32.9609 32.2107 32.5858 32.5858C32.2107 32.9609 32 33.4696 32 34V46C32 49.713 33.475 53.274 36.1005 55.8995C38.726 58.525 42.287 60 46 60Z" fill="white"/>
</svg>
