<svg width="124" height="335" viewBox="0 0 124 335" fill="none" xmlns="http://www.w3.org/2000/svg">
<path d="M62.0991 2.81274C53.3586 2.81274 45.3127 7.85632 38.2605 16.341C31.1983 24.8376 24.928 37.0124 19.7009 51.881C9.2402 81.6364 2.80733 122.612 2.80733 167.779C2.80732 212.945 9.24018 253.921 19.7009 283.676C24.928 298.545 31.1983 310.72 38.2604 319.216C45.3127 327.701 53.3586 332.744 62.099 332.744C70.8395 332.744 78.8854 327.701 85.9376 319.216C92.9998 310.72 99.2701 298.545 104.497 283.676C114.958 253.921 121.391 212.945 121.391 167.779C121.391 122.612 114.958 81.6364 104.497 51.881C99.2701 37.0124 92.9998 24.8376 85.9377 16.341C78.8854 7.85632 70.8395 2.81274 62.0991 2.81274Z" stroke="#72FFF7" stroke-width="4"/>
</svg>
